<?xml version="1.0" encoding="utf-8"?>
<!-- Generator: Adobe Illustrator 22.1.0, SVG Export Plug-In . SVG Version: 6.00 Build 0)  -->
<svg version="1.1" id="Слой_1" xmlns="http://www.w3.org/2000/svg" xmlns:xlink="http://www.w3.org/1999/xlink" x="0px" y="0px"
	 viewBox="0 0 120 120" enable-background="new 0 0 120 120" xml:space="preserve">
<g>
	<path fill="#343434" d="M104.945,32.56c-0.705-0.809-1.494-1.539-2.199-2.343c-0.665-0.76-1.38-1.698-0.834-2.661
		c1.36-2.403,0.094-4.2-1.31-5.798c-2.249-2.561-3.033-5.585-3.505-8.821c-0.218-1.499,0.228-2.998-0.03-4.969
		c-2.224,2.805-1.613,5.803-2.154,8.662c-3.475-2.805-4.1-7.793-8.96-9.938c1.241,2.298,2.844,3.753,2.968,5.982
		c-9.834-4.89-12.45-5.505-15.577-3.495c2.815,0.452,5.669,0.303,7.962,2.482c-7.655,0.124-13.194,2.343-14.187,5.699
		c1.474-0.094,2.616-1.876,4.274-0.913c-2.229,4.845-4.681,9.566-1.961,15.517c0.814-1.484,0.253-2.641,1.271-3.51
		c2.532,5.843,6.165,11.194,5.699,17.97c-0.511,7.416-6.26,11.248-11.005,16.143c7.372,1.951,8.915,1.38,13.04-4.532
		c0.283-0.407,0.611-0.784,0.864-1.206c2.492-4.13,4.115-8.474,3.013-13.408c-0.675-3.023-2.353-5.609-3.768-8.31
		c-1.454-2.775-2.998-5.51-3.485-8.677c-0.566-3.663,1.638-7.699,4.741-8.647c3.167-0.973,9.124,1.365,10.494,4.066
		c0.506,1.003,0.501,1.489-0.819,1.514c-1.951,0.045-3.802,0.467-5.51,2.09c2.125-0.089,3.922-0.293,5.763,0.308
		c-1.087,2.646,0.308,4.016,2.512,4.944c1.067,0.447,2.139,0.869,3.217,1.291c2.929,1.152,5.192,2.909,5.599,6.284
		c0.079,0.64,0.303,0.993,0.884,0.735c1.311-0.581,3.013-0.616,3.624-2.264C106.116,35.271,106.037,33.816,104.945,32.56z
		 M99.683,29.478c-0.675-0.035-1.37-0.283-1.34-1.082c0.035-0.849,0.298-1.688,0.477-2.606c1.231,0.74,0.437,2.323,1.579,3.008
		C100.601,28.917,100.115,29.502,99.683,29.478z"/>
	<path fill="#343434" d="M74.232,39.247c-1.757-2.904-3.778-5.614-6.324-7.903c-4.085-3.663-8.756-5.058-14.207-3.966
		c-3.316,0.665-6.672,1.191-10.037,1.554c-4.636,0.496-9.094-2.298-9.983-6.036c-0.755-3.167,2.318-8.225,5.937-9.804
		c0.7-0.303,1.469-0.665,2.125-0.263c0.66,0.397-0.025,1.033-0.094,1.559c-0.228,1.723-0.238,3.43,0.501,5.177
		c0.352-1.082,0.695-2.169,1.072-3.251c0.397-1.157,0.76-2.194,2.313-0.988c1.102,0.854,2.259,0.189,3.117-0.621
		c0.958-0.898,1.807-1.926,2.626-2.959c2.358-2.968,5.043-5.163,9.178-3.966c0.169-5.589-2.08-7.203-6.597-4.954
		c-0.516,0.258-1.003,0.606-1.544,0.784c-0.874,0.288-1.976,0.571-2.616-0.094c-1.971-2.06-4.125-1.35-6.175-0.491
		c-2.303,0.968-4.617,0.988-7.034,0.879c-2.264-0.104-4.279-1.147-6.86-1.713c1.976,2.879,4.964,3.232,7.466,4.626
		c-3.683,2.442-8.697,1.41-12.162,5.5c1.613-0.467,2.542-0.814,3.5-0.993c0.978-0.184,2-0.377,3.152,0.005
		c-7.094,6.364-9.263,9.913-8.111,13.557c1.062-2.7,2.224-5.098,4.582-6.806c-1.981,8.712-1.628,13.467,1.127,15.289
		c0.258-1.42-0.616-2.874,0.283-4.602c2.025,2.025,3.812,4.16,6.289,5.277c2.383,1.077,4.711,3.053,7.898,1.241
		c-1.117-0.551-2.01-0.998-3.42-1.693c6.647-0.839,12.683-2.328,18.829-0.199c7.352,2.547,9.446,9.347,12.599,15.716
		c0.725-1.301,1.41-2.249,1.802-3.306C74.252,43.699,75.652,41.595,74.232,39.247z M50.822,5.189
		c-0.918,2.467-1.102,2.477-3.227,0.596C48.623,5.462,49.665,6.077,50.822,5.189z"/>
	<path fill="#343434" d="M48.484,34.496c-8.563,2.8-13.959,7.957-14.232,17.637c-0.099,3.529-0.794,7.213-2.646,10.439
		c-1.896,3.316-5.704,5.103-8.756,4.13c-3.098-0.993-6.533-6.304-6.15-9.442c0.139-1.132,0.432-1.499,1.519-0.74
		c1.648,1.152,3.544,1.598,5.932,1.767c-1.231-0.908-2.06-1.852-3.088-2.204c-1.956-0.67-1.871-1.345-0.531-2.636
		c1.167-1.127,0.869-3.907-0.333-4.691c-0.218-0.144-1.4-1.852-1.484-2.065c-0.179-0.457-0.362-0.918-0.606-1.34
		c-1.648-2.844-2.005-5.699,0.015-8.618c-0.591-0.223-1.042-0.437-1.519-0.556c-3.892-0.993-5.53,0.501-5.222,4.497
		c0.139,1.772,1.013,3.981-0.963,5.182c-1.812,1.102-2.278,2.651-2.11,4.388c0.506,5.252-1.385,9.59-5.053,13.686
		c3.515-0.352,4.502-3.385,6.637-5.143c0.789,2.259,0.238,4.284,0.055,6.309c-0.288,3.217-0.04,4.284,1.176,5.604
		c0.447-1.871,0.308-3.887,1.405-5.594c0.814,1.847,1.529,3.728,2.457,5.5c1.271,2.432,2.879,4.641,5.252,6.145
		c0.447,0.283,0.968,0.889,1.509,0.298c0.655-0.71-0.189-0.948-0.576-1.266c-1.459-1.186-2.303-2.79-3.093-4.532
		c2.363,1.186,4.468,2.81,7.039,3.43c2.527,0.611,5.058,1.042,7.674-0.04c-1.34-0.66-3.053-0.472-4.041-1.847
		c8.717-5.386,11.025-7.992,9.968-11.263c-0.625,0.68-1.226,1.335-1.827,1.986c0.894-6.409,1.157-13.031,5.733-18.307
		c4.741-5.465,11.526-5.177,17.905-6.309C56.908,33.632,54.108,32.66,48.484,34.496z M11.84,49.259
		c-0.099-1.459,1.41-2.363,1.057-3.797C14.332,46.728,14.332,46.728,11.84,49.259z"/>
	<path fill="#343434" d="M65.297,96.655c6.637-6.478,8.285-9.248,7.679-13.011c-1.157,1.057-1.142,3.078-3.033,3.405
		c-0.71-4.165-1.435-8.29-4.353-11.626c-0.859-0.978-1.698-1.598-3.162-1.36c0.477,0.839,0.933,1.638,1.757,3.083
		c-5.833-3.227-11.417-5.416-15.155-10.449c-4.765-6.409-2.606-13.289-1.276-20.397c-2.993,1.013-4.751,2.015-6.245,3.415
		c-0.799,0.75-1.4,1.584-1.504,2.735c-1.052,11.382,1.688,19.389,12.956,23.42c3.475,1.241,6.786,3.232,9.154,6.339
		c2.432,3.182,1.653,7.486-0.417,9.382c-2.924,2.681-8.488,3.395-11.1,1.271c0.789-0.829,1.618-1.618,2.343-2.497
		c0.481-0.581,1.534-1.251,0.784-2.02c-0.655-0.675-1.231,0.447-1.832,0.769c-0.884,0.472-1.723,2.005-2.631,0.144
		c-1.028-2.105-2.77-1.931-4.552-1.579c-2.715,0.541-5.316,1.936-8.22,1.047c-0.194-0.06-0.462,0.074-0.675,0.159
		c-0.477,0.189,0.745,1.593-0.675,1.032c-0.71-0.278-1.876-0.551-1.052-1.946c0.114-0.194-0.948-2.07-1.752-1.569
		c-1.018,0.635-1.896,1.981-1.976,3.276c-0.074,1.266,0.303,2.69,1.713,3.316c1.191,0.531,2.398,1.033,3.753,1.122
		c1.271,0.084,2.725,0.511,2.944,1.857c0.462,2.829,2.621,3.485,4.755,3.971c2.537,0.581,4.487,1.956,6.364,3.609
		c1.598,1.405,2.735,3.187,4.185,5.237c0.278-3.311-1.643-5.287-2.973-7.679c4.453-0.745,7.808,3.872,12.455,2.254
		c-1.871-1.221-4.244-1.186-5.649-3.122c5.078-0.879,10.33-0.596,13.909-5.004C69.685,95.717,67.71,96.839,65.297,96.655z
		 M41.917,95.578c-0.621-0.481-1.157-0.958-1.757-1.34c-0.328-0.208-1.107,0.313-1.042-0.516c0.025-0.298,0.486-0.606,0.809-0.829
		c0.531-0.362,0.943-0.06,1.226,0.382C41.579,93.94,42.13,94.585,41.917,95.578z"/>
	<path fill="#343434" d="M103.371,74.6c1.678-4.135,6.25-6.294,6.687-11.174c-1.857,1.296-2.611,3.559-4.89,4.353
		c0.869-4.239,2.025-8.245,0.874-12.4c-0.417-0.755-0.834-0.889-1.256-0.005c-0.357,1.633,0.144,3.425-0.898,4.979
		c-1.549-6.339-5.495-11.318-9.715-12.117c0.357,1.579,2.556,2.149,2.204,4.036c-8.513-1.301-13.577-0.258-14.505,3.053
		c0.908-0.154,1.767-0.303,3.301-0.566c-5.187,4.815-9.342,9.868-16.054,11.566c-7.158,1.812-12.504-2.596-18.615-5.56
		c0.248,1.752,0.164,3.172,0.68,4.324c0.74,1.653,0.616,3.927,2.576,4.815c4.155,1.886,8.484,3.127,13.125,3.043
		c5.421-0.099,9.213-3.048,12.668-6.821c2.556-2.79,5.024-5.743,8.593-7.377c3.773-1.727,8.181-0.621,9.849,2.447
		c1.891,3.48,0.789,9.422-2.105,11.338c-1.062-1.747-1.301-4.224-4.001-4.845c0.392,1.176,0.67,2.09,1.003,2.983
		c0.486,1.311,0.546,2.09-1.335,2.075c-1.598-0.015-2.085,1.459-2.259,2.81c-0.208,1.633-0.243,3.291-0.367,4.934
		c-0.218,2.998-1.474,5.376-4.234,6.746c-0.387,0.189-0.928,0.263-0.65,0.68c0.864,1.296,1.777,2.631,3.435,3.008
		c1.425,0.328,2.641-0.208,3.48-1.34c0.68-0.918,1.172-1.976,1.752-2.968c0.596-1.028,1.311-2.12,2.626-1.931
		c2.537,0.362,3.877-1.186,4.924-2.988c1.479-2.547,3.673-4.155,6.16-5.555c1.628-0.918,3.445-1.32,5.609-2.045
		C108.792,72.754,106.171,74.347,103.371,74.6z M94.073,82.726c-0.298,0.308-0.382,1.042-1.037,0.755
		c-0.208-0.089-0.328-0.521-0.377-0.809c-0.119-0.725,0.352-0.953,0.958-1.162c0.715-0.248,1.415-0.352,2.273-0.184
		C95.508,82.285,94.585,82.21,94.073,82.726z"/>
	<path fill="#525252" d="M22.655,18.378c-0.725,2.129-1.603,3.838-1.465,5.798c0.107,1.513,0.67,2.747,2.388,2.351
		c1.322-0.305,1.342,0.367,1.436,1.206c0.184,1.647,0.592,3.236,1.132,4.802c0.482,1.397,1.142,2.65,2.744,2.857
		c1.502,0.194,1.956-1.133,2.421-2.136c2.443,0.947,2.573,1.975,1.134,4.139c-3.616,5.439-4.368,11.833-4.935,18.162
		c-0.2,2.231-0.954,2.147-2.346,1.112c-1.421-1.056-2.43-2.288-2.133-4.313c0.379-2.584-1.214-4.529-2.57-6.475
		c-1.266-1.816-2.133-3.691-1.8-5.977c0.087-0.594,0.132-1.17,0.719-1.471c2.163-1.108,0.72-2.232-0.196-2.885
		c-1.767-1.261-3.846-1.872-6.048-1.318c-0.674,0.169-1.216,0.528-1.671-0.28c-1.038-1.84-2.086-3.674-3.263-5.744
		c1.406-0.079,2.458-0.139,3.738-0.211c-0.317-0.212-0.459-0.388-0.61-0.397c-5.161-0.293-6.106-4.844-8.221-8.182
		c-0.659-1.04,0.277-1.028,0.93-1.034c2.881-0.028,5.819-0.324,8.439,1.27c1.036,0.63,1.476,0.903,1.152-0.731
		c-0.155-0.783,0.848-0.514,1.326-0.522C17.424,18.354,19.895,18.378,22.655,18.378z"/>
	<path fill="#525252" d="M63.401,40.18c-0.237-1.21-1.205-1.936-1.539-3.047c5.219,3.524,6.155,9.837,9.355,14.759
		c1.202-0.287,1.298-1.795,2.696-2.486c-0.607,2.296-1.697,4.017-3.147,5.486c-2.202,2.23-4.456,4.414-6.775,6.522
		c-2.012,1.829-2.065,1.769,0.883,2.837c0.213,0.077,0.418,0.178,0.724,0.31c-3.482,0.593-6.303-0.539-8.426-3.308
		c-0.149-0.194-0.384-0.567-0.459-0.539c-3.206,1.204-4.841-2.362-7.725-2.493c0,1.216,0,2.426,0,3.637
		c-2.527-6.024,0.506-11.739,0.783-17.727c-1-0.719-2.015,0.847-3.319,0.103C51.639,40.736,57.713,41.726,63.401,40.18z"/>
	<path fill="#525252" d="M81.5,27.782c1.613-0.7,3.187-0.604,4.73-0.688c0.566-0.031,1.193-0.096,1.312,0.736
		c0.451,3.157,2.956,4.128,5.456,5.07c1.928,0.726,3.92,1.315,5.268,3.041c0.565,0.724,1.069,1.437,0.961,2.45
		c-0.07,0.658-1.084,1.412-0.101,1.953c0.833,0.458,1.815,0.879,2.846,0.554c0.837-0.264,1.653-0.594,3.133-1.134
		c-1.844,3.189-3.392,5.832-4.901,8.497c-0.45,0.795-0.891,0.796-1.543,0.247c-0.629-0.53-1.304-1.013-1.996-1.458
		c-1.093-0.703-2.291-1.076-3.47-0.305c-1.131,0.74-1.113,1.889-0.6,2.998c-2.506,0.705-3.318,0.033-3.397-2.61
		c-0.171-5.748-2.832-10.761-5.575-15.675C82.947,30.241,82.232,29.044,81.5,27.782z"/>
	<path fill="#525252" d="M107.748,21.004c1.143,0.173,1.787-0.626,2.375-1.183c1.697-1.609,3.726-1.484,5.795-1.461
		c1.437,0.016,1.189,0.613,0.699,1.515c-1.66,3.052-3.18,6.223-7.497,6.756c1.294,0.768,2.233-0.054,3.372,0.298
		c-1.519,2.652-3.011,5.257-4.538,7.923c-0.149-0.198-0.203-0.25-0.232-0.313c-1.633-3.584-4.675-6.534-4.135-11.092
		c0.203-1.711-1.983-3.063-3.187-4.903c3.107,0,5.875,0,8.81,0C109.351,19.596,108.151,20.069,107.748,21.004z"/>
	<path fill="#525252" d="M40.999,80.809c-4.47-0.882-5-5.14-7.084-8.054c-0.699-0.978,0.463-1.193,0.968-1.607
		c0.402-0.33,0.778-0.873,1.37-0.063c4.733,6.48,11.75,9.601,19.257,12.762c-1.487,1.259-2.762,2.319-4.013,3.407
		c-0.572,0.498-0.974,0.326-1.459-0.154c-1.576-1.56-3.445-1.689-5.513-1.171c-2.371,0.595-4.947-1.317-5.171-3.725
		C39.242,80.997,40.59,81.78,40.999,80.809z"/>
	<path fill="#525353" d="M64.684,109.781c-1.484,2.572-2.963,5.134-4.483,7.767c-4.115-3.766-4.326-8.865-5.083-13.794
		c2.073,0.603,4.132,1.712,6.458,1.757c1.227,0.024,2.54,0.076,3.356-1.012c0.956-1.274-0.074-2.284-0.892-3.36
		c2.24-0.122,4.028-1.31,6.747-1.724c-2.839,3.854-3.543,8.652-9.087,9.886C62.985,109.949,63.761,109.045,64.684,109.781z"/>
	<path fill="#525353" d="M75.002,83.135c-0.62-0.816-1.379-1.704-2.445-1.159c-1.201,0.613-1.662,0.525-2.113-0.823
		c-0.515-1.54,0.319-1.717,1.42-2.126c6.409-2.38,10.94-7.175,15.378-12.089c0.49-0.543,0.887-1.867,1.787-1.24
		c0.854,0.595,0.184,1.651-0.281,2.451c-1.491,2.561-2.996,5.114-4.446,7.698c-0.464,0.826-1.046,1.435-1.892,1.869
		c-0.459,0.236-2.146,0.534-0.156,1.251c0.107,0.038-0.164,1.619-1.343,1.404c-1.108-0.202-1.503,0.341-1.589,1.315
		C78.016,82.569,76.55,82.975,75.002,83.135z"/>
	<path fill="#565757" d="M67.946,19.357c-0.235,2.302-1.018,3.024-3.491,2.323c-5.78-1.638-11.601-0.611-17.36,0.551
		c-0.322,0.065-0.667,0.316-0.944,0.248c-0.868-0.215-2.142,1.271-2.584-0.386c-0.46-1.725,0.919-3.716,2.376-3.722
		c6.104-0.025,12.208-0.065,18.311,0.035C65.494,18.426,66.726,19.027,67.946,19.357z"/>
	<path fill="#646564" d="M75.002,83.135c1.249-1.054,2.679-1.566,4.32-1.448c0.555,0.438,1.177,0.714,0.584,1.699
		c-1.741,2.891-3.385,5.843-4.994,8.81c-0.537,0.991-1.104,0.587-1.8,0.331c-1.29-0.473-0.472-1.125-0.18-1.718
		C74.126,88.385,75.555,86.029,75.002,83.135z"/>
	<path fill="#383939" d="M37.875,39.003c-0.915,1.45-1.735,3.207-2.993,4.553c-0.634,0.678-1.49-0.867-2.525-0.906
		c-0.683-0.026-0.325-0.817-0.136-1.203c0.649-1.326,1.353-2.626,2.068-3.918c0.456-0.823,1.163-1.171,2.077-0.807
		C37.287,37.09,37.785,37.805,37.875,39.003z"/>
	<path fill="#383938" d="M44.404,72.546c-0.032,0.028-0.087,0.119-0.151,0.126c-1.164,0.128-1.435,2.202-2.39,1.702
		c-1.652-0.865-2.976-2.361-3.938-4.027c-0.577-0.998,0.039-1.745,0.889-2.244c0.988-0.58,1.906-0.44,2.624,0.497
		C42.388,69.84,43.318,71.098,44.404,72.546z"/>
	<path fill="#393939" d="M83.435,43.325c1.208,0.074,2.809-1.009,3.232-0.236c0.928,1.696,1.129,3.793,0.903,5.764
		c-0.123,1.069-1.203,1.242-2.171,1.115c-1.022-0.134-1.684-0.695-1.664-1.788C83.764,46.559,84.036,44.932,83.435,43.325z"/>
	<path fill="#363737" d="M59.117,25.822c-0.45-3.08,1.045-3.666,3.657-2.794c0.385,0.129,0.819,0.104,1.221,0.194
		c1.395,0.31,2.631,0.781,2.029,2.62c-0.515,1.574-1.651,1.603-2.991,1.163C61.711,26.571,60.369,26.198,59.117,25.822z"/>
	<path fill="#393939" d="M76.203,74.567c-0.354,0.37-0.482,0.592-0.674,0.691c-1.435,0.742-2.889,1.449-4.326,2.187
		c-1.03,0.529-1.786,0.144-2.221-0.779c-0.488-1.035-0.531-2.205,0.63-2.779c1.379-0.682,2.853-1.326,4.353-1.566
		C75.585,72.062,74.763,74.337,76.203,74.567z"/>
	<path fill="#5A5B5A" d="M53.839,92.436c1.278-2.106,2.6-4.083,3.153-6.423c0.23-0.971,0.577-0.91,1.32-0.317
		c2.285,1.824,1.969,4.844-0.744,6.162C56.447,92.403,55.229,92.502,53.839,92.436z"/>
	<path fill="#565757" d="M80.573,25.551c-1.008-2.066-1.02-3.853,0.609-4.959c2.174-1.477,4.297-0.51,6.525,0.926
		C85.075,22.591,82.649,23.542,80.573,25.551z"/>
	<path fill="#373838" d="M50.78,26.667c0.769-1.367-0.522-3.003,0.828-3.395c1.843-0.535,3.867-1.02,5.849-0.434
		c0.602,0.178,0.838,0.799,0.704,1.43c-0.168,0.794-0.678,1.359-1.477,1.498C54.898,26.078,53.1,26.319,50.78,26.667z"/>
	<path fill="#393939" d="M80.639,66.974c0.37,0.58,0.717,1.397,1.426,1.908c0.383,0.275,0.453,0.664,0.045,1.021
		c-1.354,1.186-2.622,2.496-4.094,3.513c-1.04,0.719-1.882,0.154-2.071-1.123C75.83,71.514,79.587,67.047,80.639,66.974z"/>
	<path fill="#393A39" d="M34.059,45.842c-0.238,1.363-0.251,2.482-0.661,3.429c-0.289,0.666,0.618,2.342-1.295,1.923
		c-1.32-0.289-2.828-0.37-1.964-2.49c0.395-0.969,0.392-2.093,0.694-3.11c0.249-0.838,0.508-1.881,1.743-1.657
		C33.768,44.153,33.994,45.139,34.059,45.842z"/>
	<path fill="#3A3B3B" d="M50.968,76.323c-1.743,2.942-1.779,3-4.698,1.187c-1.13-0.702-3.39-1.17-2.39-3.016
		c1.015-1.875,2.716-0.533,4.067,0.192C48.954,75.227,49.958,75.775,50.968,76.323z"/>
	<path fill="#373737" d="M80.424,36.114c1.186-0.066,2.517-1.663,3.217-0.727c1.174,1.572,2.226,3.463,2.209,5.624
		c-0.004,0.54-0.26,0.961-0.859,1.009c-0.966,0.078-1.786-0.162-2.248-1.121C81.997,39.349,81.243,37.802,80.424,36.114z"/>
	<path fill="#383938" d="M76.781,29.045c3.525-1.451,4.123,1.21,5.226,3.136c0.47,0.82,0.989,1.717-0.199,2.277
		c-1.013,0.478-2.12,0.542-2.75-0.713C78.29,32.215,77.562,30.663,76.781,29.045z"/>
	<path fill="#383838" d="M86.427,60.828c-0.268,1.711,1.383,2.408,0.713,3.441c-0.883,1.362-2.114,2.517-3.292,3.661
		c-0.648,0.63-1.232,0.06-1.634-0.482c-0.659-0.888-0.772-1.838,0.07-2.677C83.448,63.611,84.662,62.502,86.427,60.828z"/>
	<path fill="#383838" d="M44.849,27.716c-0.603-0.195-1.615,0.269-1.29-0.69c0.268-0.791-0.73-2.118,0.921-2.403
		c1.205-0.208,2.392-0.523,3.584-0.802c0.858-0.201,1.732-0.321,1.935,0.826c0.18,1.021,0.055,2.089-1.166,2.389
		C47.48,27.369,46.08,27.514,44.849,27.716z"/>
	<path fill="#393939" d="M58.739,80.399c-1.809,0.103-1.824,2.01-3.09,1.623c-1.557-0.476-3.044-1.255-4.462-2.075
		c-0.664-0.384-0.441-1.182,0-1.757c0.599-0.78,1.315-1.274,2.343-0.742c0.745,0.385,1.502,0.747,2.233,1.157
		C56.541,79.041,57.293,79.523,58.739,80.399z"/>
	<path fill="#3D3D3D" d="M29.074,56.936c0.206-1.58,0.323-2.562,0.467-3.54c0.109-0.739,0.178-1.614,1.24-1.464
		c1.024,0.145,1.988,0.577,1.948,1.826c-0.034,1.059-0.23,2.119-0.425,3.165c-0.165,0.886,0.025,1.986-1.67,1.616
		C29.182,58.222,28.878,57.599,29.074,56.936z"/>
	<path fill="#606060" d="M41.037,23.259c-2.017,0.061-3.43-0.575-4.312-2.135c-0.395-0.699-0.867-1.563-0.369-2.317
		c0.526-0.796,1.465-0.392,2.264-0.381c1.058,0.015,1.344,0.583,1.499,1.516C40.292,20.977,40.671,21.977,41.037,23.259z"/>
	<path fill="#464646" d="M23.744,65.617c2.361-0.676,3.868-2.191,4.598-4.545c0.235-0.759,0.578-1.875,1.575-1.471
		c1.022,0.414,1.078,1.465,0.602,2.536C29.504,64.425,26.951,65.84,23.744,65.617z"/>
	<path fill="#3D3C3C" d="M35.246,23.199c1.695,1.054,3.34,2.003,5.409,1.92c0.68-0.027,1.934-0.495,1.836,0.845
		c-0.089,1.222-1.086,1.873-2.311,1.55C37.891,26.912,35.999,25.733,35.246,23.199z"/>
	<path fill="#3F3F3F" d="M62.027,88.083c-0.765-1.746-1.788-3.172-3.215-4.321c-0.569-0.458-1.883-0.694-1.046-1.738
		c0.766-0.956,1.95-0.891,2.801,0.073C62.079,83.81,62.719,85.789,62.027,88.083z"/>
	<path fill="#3B3B3B" d="M95.037,60.11c-1.918,0.284-3.746,0.633-5.325,1.853c-0.549,0.424-1.297,1.506-1.953,0.212
		c-0.503-0.991-0.151-1.959,0.949-2.453C90.852,58.76,92.956,58.922,95.037,60.11z"/>
	<path fill="#3B3B3B" d="M78.291,20.568c-0.05,2.136-0.209,4.141,0.562,6.043c0.187,0.461,0.051,0.991-0.641,1.029
		c-0.781,0.044-1.455-0.145-1.856-0.896C75.581,25.292,76.521,22.034,78.291,20.568z"/>
	<path fill="#494949" d="M106.04,55.382c-0.417-0.346-0.835-0.301-1.255-0.006c-0.399-1.047-0.951-2.052-0.921-3.8
		C105.364,52.739,105.803,53.994,106.04,55.382z"/>
</g>
</svg>
